<svg width="1200" height="900" viewBox="0 0 1200 900" fill="none" xmlns="http://www.w3.org/2000/svg">
  <rect width="1200" height="900" rx="40" fill="#FFF1D0"/>
  <rect x="100" y="120" width="1000" height="660" rx="48" fill="#FFCC8C"/>
  <rect x="160" y="180" width="880" height="540" rx="40" fill="#FFF8E6"/>
  <circle cx="280" cy="290" r="96" fill="#FF9362"/>
  <circle cx="920" cy="260" r="72" fill="#FFD86B"/>
  <rect x="250" y="470" width="700" height="110" rx="55" fill="#F3C072"/>
  <rect x="210" y="545" width="780" height="110" rx="55" fill="#FFE4AA"/>
  <path d="M325 458C356 370 441 322 553 322C693 322 785 380 827 458H325Z" fill="#7D4A2C"/>
  <path d="M332 460H821V487C821 582 744 659 649 659H504C409 659 332 582 332 487V460Z" fill="#9B5A37"/>
  <rect x="420" y="410" width="320" height="78" rx="39" fill="#FFF9EF"/>
  <text x="600" y="780" text-anchor="middle" fill="#5D3826" font-family="sans-serif" font-size="54" font-weight="700">Butter House</text>
</svg>
