<svg width="1200" height="900" viewBox="0 0 1200 900" fill="none" xmlns="http://www.w3.org/2000/svg">
  <rect width="1200" height="900" rx="40" fill="#FFF8EA"/>
  <rect x="90" y="100" width="1020" height="700" rx="58" fill="#FFD06A"/>
  <rect x="150" y="160" width="900" height="580" rx="48" fill="#FFF8EE"/>
  <circle cx="310" cy="250" r="80" fill="#FF9D55"/>
  <circle cx="880" cy="230" r="54" fill="#F4A34F"/>
  <path d="M270 518C286 408 393 326 526 326H675C809 326 915 408 930 518H270Z" fill="#8B5B3C"/>
  <path d="M300 520H900V570C900 638 845 693 777 693H423C355 693 300 638 300 570V520Z" fill="#B67041"/>
  <rect x="380" y="428" width="440" height="72" rx="36" fill="#FFF0D3"/>
  <text x="600" y="778" text-anchor="middle" fill="#6D462D" font-family="sans-serif" font-size="54" font-weight="700">Bake &amp; Rice</text>
</svg>
